<svg width="173" height="122" viewBox="0 0 173 122" fill="none" xmlns="http://www.w3.org/2000/svg">
<g filter="url(#filter0_d_10_352)">
<path d="M92.2247 64.333C92.3092 64.2773 92.4597 64.2206 92.6761 64.1629C93.1399 64.0391 93.5367 64.0989 93.8667 64.342C94.1966 64.5852 94.4318 64.9696 94.5722 65.4951C94.8283 66.4535 94.8451 67.2604 94.6227 67.9159C94.3921 68.5405 93.9388 69.0754 93.2629 69.5207C91.9645 70.3639 90.5115 71 88.9037 71.4289C87.5433 71.7919 86.2106 71.9487 84.9057 71.8994C84.3972 73.5917 83.8084 75.3551 83.1392 77.1896C82.3733 79.2817 81.6287 80.772 80.9055 81.6605C80.2133 82.5407 79.3106 83.1293 78.1975 83.4262C76.9608 83.7562 75.8897 83.5286 74.9844 82.7434C74.11 81.95 73.3023 80.4764 72.5613 78.3226L71.425 74.9992C71.1603 77.8519 70.8232 80.0615 70.4136 81.628C70.035 83.1862 69.5294 84.3313 68.8969 85.0631C68.2952 85.7866 67.4843 86.2845 66.464 86.5567C65.1963 86.8949 64.0593 86.6684 63.0529 85.877C62.0775 85.0775 61.2121 83.6358 60.4567 81.5521C58.9293 77.3229 57.732 73.5852 56.8648 70.3391L56.4312 68.716C56.1895 67.6875 56.2778 66.9022 56.6961 66.3601C57.1143 65.818 57.8491 65.4067 58.9003 65.1262C59.7042 64.9117 60.3412 64.9405 60.8113 65.2125C61.3041 65.4453 61.662 65.9791 61.885 66.8138C62.8348 70.3691 64.2861 74.9333 66.2387 80.5063C67.16 75.5244 67.8618 70.4024 68.3439 65.1403C68.4362 64.1221 68.673 63.3965 69.0542 62.9636C69.458 62.4916 70 62.1648 70.6802 61.9833C71.515 61.7606 72.1325 61.778 72.5325 62.0356C72.9635 62.285 73.2946 62.8424 73.5258 63.7081C74.4757 67.2634 75.9269 71.8275 77.8795 77.4006C78.9995 74.1541 79.8044 71.5879 80.2942 69.7019C79.5909 68.9291 79.0741 67.9243 78.7437 66.6877C78.4629 65.6366 78.4222 64.5545 78.6217 63.4415C78.8212 62.3284 79.2402 61.3555 79.8789 60.5227C80.5176 59.6899 81.3471 59.1374 82.3674 58.8652C83.2641 58.626 84.0774 58.7568 84.8074 59.2575C85.5291 59.7273 86.051 60.5651 86.3731 61.7708C86.7448 63.162 86.7991 64.8532 86.5361 66.8443C87.6945 66.469 89.194 65.8205 91.0345 64.8989L92.2247 64.333ZM93.8149 52.5819C92.5164 52.9284 91.464 52.8945 90.6577 52.4804C89.8433 52.0353 89.2915 51.2717 89.0024 50.1896C88.7133 49.1076 88.8912 48.0997 89.536 47.1659C90.2035 46.1929 91.1711 45.5374 92.4388 45.1992C93.5827 44.8939 94.5846 44.9247 95.4444 45.2915C96.3042 45.6582 96.8704 46.3517 97.143 47.3719C97.4733 48.6086 97.3357 49.7051 96.73 50.6616C96.1161 51.5871 95.1444 52.2272 93.8149 52.5819ZM100.097 77.5835C98.0872 78.1197 96.4286 77.8005 95.1211 76.6258C93.8445 75.4429 92.8924 73.6767 92.2647 71.3271C91.893 69.9359 91.5881 68.1128 91.3501 65.858C91.1347 63.564 91.0533 61.3998 91.106 59.3655C91.12 58.3019 91.3093 57.5228 91.674 57.0281C92.0386 56.5334 92.7311 56.1499 93.7514 55.8777C95.3283 55.457 96.2571 55.7722 96.5379 56.8233C96.7444 57.5962 96.9297 59.4677 97.0939 62.4378C97.2604 66.0365 97.5047 68.4387 97.8268 69.6444C98.0746 70.5719 98.3882 71.2499 98.7677 71.6786C99.1472 72.1072 99.6307 72.2432 100.218 72.0865C100.775 71.938 101.367 71.3659 101.995 70.3703C102.624 69.3747 103.411 67.8566 104.356 65.8159C104.611 65.2841 104.971 64.9563 105.435 64.8326C105.837 64.7254 106.195 64.8284 106.511 65.1416C106.857 65.4466 107.117 65.9237 107.291 66.573C107.621 67.8096 107.583 68.8463 107.178 69.6832C105.116 74.2407 102.756 76.8741 100.097 77.5835ZM128.21 58.7561C128.612 58.6488 128.971 58.7518 129.287 59.0651C129.633 59.3701 129.893 59.8472 130.067 60.4964C130.397 61.7331 130.359 62.7698 129.954 63.6067C129.062 65.5999 127.983 67.3283 126.718 68.7919C125.484 70.2473 123.893 71.2348 121.945 71.7545C120.306 72.1916 118.82 71.959 117.486 71.0564C116.029 72.6704 114.346 73.7487 112.438 74.291C113.63 80.365 114.048 85.5858 113.691 89.9533C113.342 94.3518 111.792 96.9182 109.04 97.6523C107.371 98.0978 105.973 97.8249 104.847 96.8336C103.721 95.8424 102.873 94.2802 102.303 92.147C101.494 89.1173 101.244 85.3918 101.553 80.9706C101.871 76.5804 102.834 71.5707 104.444 65.9415C103.238 61.4278 102.369 58.2981 101.836 56.5524C101.566 55.6641 101.731 54.8582 102.333 54.1346C102.934 53.4111 103.792 52.9009 104.905 52.6039C105.554 52.4307 106.055 52.446 106.408 52.65C106.783 52.8149 107.089 53.2796 107.327 54.0443C107.533 54.8172 107.701 55.385 107.831 55.7477C108.49 54.2471 109.229 53.1062 110.047 52.3249C110.857 51.5127 111.803 50.9622 112.885 50.6735C114.616 50.2116 116.209 50.5318 117.663 51.6343C119.148 52.7286 120.191 54.4041 120.794 56.661C121.232 58.2995 121.395 59.9618 121.282 61.6478C121.169 63.3338 120.819 64.9343 120.23 66.4494C120.929 66.4616 121.494 66.41 121.927 66.2945C122.948 66.0223 123.822 65.3915 124.552 64.402C125.281 63.4126 126.141 61.8584 127.132 59.7394C127.387 59.2076 127.747 58.8798 128.21 58.7561ZM111.48 69.7773C112.527 69.233 113.386 68.3579 114.058 67.1521C114.752 65.907 115.188 64.4992 115.364 62.9286C115.533 61.3271 115.406 59.738 114.985 58.1613C114.737 57.2338 114.366 56.5877 113.871 56.223C113.368 55.8273 112.807 55.712 112.188 55.8769C111.075 56.1739 110.044 57.7075 109.095 60.4778C109.428 61.8464 109.945 63.8445 110.647 66.4724C111.027 67.8945 111.305 68.9961 111.48 69.7773ZM108.197 93.0087C109.032 92.786 109.24 90.7764 108.822 86.9798C108.412 83.2142 107.562 78.6057 106.271 73.1542C105.768 76.6004 105.505 79.8334 105.484 82.8529C105.463 85.8725 105.708 88.3406 106.22 90.2574C106.484 91.2467 106.81 91.9712 107.198 92.4307C107.555 92.8986 107.888 93.0912 108.197 93.0087ZM146.921 53.7641C147.323 53.6568 147.682 53.7598 147.998 54.0731C148.344 54.3781 148.604 54.8552 148.777 55.5044C149.108 56.741 149.07 57.7778 148.664 58.6147C147.892 60.3111 146.612 62.0272 144.823 63.7629C143.065 65.4904 140.996 66.6717 138.615 67.3069C135.369 68.173 132.614 67.9642 130.35 66.6804C128.086 65.3967 126.545 63.2245 125.727 60.1638C125.157 58.0306 125.077 55.9324 125.486 53.8692C125.887 51.775 126.732 49.9766 128.019 48.4738C129.338 46.9628 131.002 45.9392 133.012 45.403C134.805 44.9246 136.388 45.082 137.759 45.8754C139.122 46.6378 140.047 47.931 140.534 49.7551C141.104 51.8882 140.823 53.9339 139.69 55.8922C138.579 57.8113 136.32 59.7058 132.911 61.5757C134.064 62.7916 135.722 63.1108 137.887 62.5334C139.278 62.1622 140.727 61.2623 142.233 59.8337C143.762 58.366 144.965 56.6705 145.843 54.7474C146.098 54.2156 146.458 53.8878 146.921 53.7641ZM133.438 50.158C132.294 50.4632 131.497 51.3877 131.049 52.9316C130.631 54.4672 130.674 56.1779 131.178 58.0638L131.202 58.1565C132.911 57.237 134.175 56.2042 134.995 55.0581C135.815 53.912 136.072 52.767 135.767 51.6231C135.61 51.0357 135.316 50.6174 134.885 50.368C134.477 50.0795 133.994 50.0095 133.438 50.158ZM161.882 51.2628C162.284 51.1556 162.643 51.2586 162.959 51.5718C163.305 51.8768 163.565 52.354 163.739 53.0032C164.036 54.1162 164.029 55.1447 163.718 56.0887C163.208 57.649 162.34 58.9899 161.116 60.1114C159.923 61.2245 158.353 62.041 156.405 62.5607C153.437 63.3526 150.898 63.086 148.788 61.761C146.671 60.4051 145.207 58.2123 144.398 55.1825C143.828 53.0494 143.748 50.9511 144.157 48.8879C144.558 46.7937 145.402 44.9953 146.69 43.4925C148.009 41.9815 149.673 40.9579 151.683 40.4217C153.476 39.9433 155.058 40.1008 156.429 40.8941C157.792 41.6565 158.718 42.9497 159.205 44.7738C159.775 46.9069 159.493 48.9527 158.36 50.9109C157.25 52.83 154.975 54.7286 151.535 56.6068C152.657 57.8309 154.099 58.2079 155.862 57.7377C157.129 57.3995 158.087 56.8295 158.734 56.0276C159.411 55.2175 160.106 53.9724 160.816 52.2925C161.063 51.7298 161.419 51.3866 161.882 51.2628ZM152.108 45.1767C150.964 45.4819 150.168 46.4065 149.719 47.9503C149.302 49.4859 149.345 51.1966 149.848 53.0825L149.873 53.1752C151.582 52.2557 152.846 51.2229 153.666 50.0768C154.486 48.9307 154.743 47.7857 154.437 46.6418C154.281 46.0544 153.987 45.6361 153.556 45.3867C153.147 45.0982 152.665 45.0282 152.108 45.1767Z" fill="#FF63AE"/>
</g>
<g filter="url(#filter1_d_10_352)">
<path d="M43.2567 88.228C38.1165 89.5994 33.7423 89.7314 30.1343 88.6241C26.5159 87.4781 24.1698 84.8956 23.0961 80.8765C22.5283 78.7511 22.4618 77.03 22.8967 75.7134C23.3316 74.3968 24.2641 73.5478 25.694 73.1663C26.7375 72.8879 27.6601 72.9315 28.4616 73.2973C29.2632 73.663 29.7775 74.2709 30.0047 75.1211C30.2112 75.894 30.3339 76.5858 30.3728 77.1964C30.4141 77.3509 30.4477 77.6318 30.4737 78.0388C30.5382 78.4356 30.6273 78.8465 30.7409 79.2716C31.2055 81.0106 32.4209 82.0732 34.3872 82.4594C36.3922 82.8353 38.9792 82.6004 42.1484 81.7549C45.4335 80.8785 47.8487 79.6131 49.3941 77.9588C50.9291 76.2659 51.4128 74.3567 50.8449 72.2312C50.4939 70.9173 49.7694 69.9101 48.6713 69.2094C47.563 68.4702 46.2885 67.9615 44.8479 67.6835C43.397 67.3668 41.3882 67.054 38.8215 66.7452C35.5359 66.3799 32.8068 65.9281 30.6343 65.3899C28.5004 64.8415 26.5197 63.8589 24.6921 62.4421C22.8928 60.9764 21.637 58.9103 20.9246 56.2438C20.1813 53.4614 20.2548 50.7922 21.1453 48.2363C22.0744 45.67 23.7703 43.4167 26.2329 41.4763C28.7342 39.5256 31.8785 38.045 35.6661 37.0345C38.4874 36.2818 41.1904 36.0161 43.775 36.2373C46.3494 36.4198 48.5594 37.1757 50.405 38.5048C52.2892 39.8237 53.5617 41.7197 54.2225 44.193C54.8729 46.6276 54.9962 48.5612 54.5922 49.9937C54.1883 51.4263 53.2713 52.3333 51.8413 52.7148C50.8365 52.9829 49.9036 52.9006 49.0428 52.4679C48.2206 52.0248 47.6959 51.3782 47.4688 50.5281C47.2726 49.7938 47.1499 49.1021 47.1007 48.4528C46.9069 47.2625 46.7687 46.5128 46.6861 46.2037C46.2525 44.5806 45.1298 43.5553 43.3181 43.1279C41.5064 42.7005 39.4218 42.8013 37.0642 43.4303C33.7405 44.317 31.3549 45.6159 29.9075 47.3268C28.4883 48.9888 28.073 50.9212 28.6615 53.1239C29.0538 54.5924 29.8338 55.7298 31.0015 56.5361C32.2078 57.332 33.5802 57.8973 35.1188 58.232C36.6573 58.5667 38.773 58.8923 41.4659 59.2089C44.7233 59.6232 47.3699 60.0762 49.4058 60.568C51.4417 61.0598 53.3 61.9716 54.9807 63.3034C56.7 64.6248 57.8849 66.5029 58.5354 68.9375C59.7536 73.4975 58.954 77.4782 56.1364 80.8795C53.3471 84.2318 49.0539 86.6813 43.2567 88.228Z" fill="#FF63AE"/>
</g>
<rect x="82.3663" y="40.5957" width="15.5645" height="12.9616" fill="#FBF9F9"/>
<g filter="url(#filter2_d_10_352)">
<path d="M89.6373 25.4053C89.7335 24.8488 90.5342 24.8537 90.6236 25.4113L91.6245 31.6504L92.7103 37.2963C92.7476 37.49 92.8953 37.6438 93.0874 37.6887L102.336 39.8533C102.851 39.9737 102.851 40.7065 102.336 40.827L93.0958 42.9895C92.8994 43.0355 92.7499 43.1949 92.7166 43.3939L90.6417 55.7947C90.5485 56.3513 89.7485 56.3513 89.6554 55.7947L87.5804 43.3939C87.5472 43.1949 87.3976 43.0355 87.2012 42.9895L77.9612 40.827C77.4465 40.7065 77.4465 39.9737 77.9612 39.8533L87.2032 37.6902C87.3986 37.6445 87.5477 37.4864 87.5819 37.2886L89.6373 25.4053Z" fill="#FF63AE"/>
</g>
<defs>
<filter id="filter0_d_10_352" x="51.9622" y="27.9615" width="120.272" height="82.8676" filterUnits="userSpaceOnUse" color-interpolation-filters="sRGB">
<feFlood flood-opacity="0" result="BackgroundImageFix"/>
<feColorMatrix in="SourceAlpha" type="matrix" values="0 0 0 0 0 0 0 0 0 0 0 0 0 0 0 0 0 0 127 0" result="hardAlpha"/>
<feOffset dy="1"/>
<feGaussianBlur stdDeviation="0.5"/>
<feComposite in2="hardAlpha" operator="out"/>
<feColorMatrix type="matrix" values="0 0 0 0 0 0 0 0 0 0 0 0 0 0 0 0 0 0 0.25 0"/>
<feBlend mode="normal" in2="BackgroundImageFix" result="effect1_dropShadow_10_352"/>
<feBlend mode="normal" in="SourceGraphic" in2="effect1_dropShadow_10_352" result="shape"/>
</filter>
<filter id="filter1_d_10_352" x="11.9989" y="32.8894" width="53.4756" height="61.8704" filterUnits="userSpaceOnUse" color-interpolation-filters="sRGB">
<feFlood flood-opacity="0" result="BackgroundImageFix"/>
<feColorMatrix in="SourceAlpha" type="matrix" values="0 0 0 0 0 0 0 0 0 0 0 0 0 0 0 0 0 0 127 0" result="hardAlpha"/>
<feOffset dy="1"/>
<feGaussianBlur stdDeviation="0.5"/>
<feComposite in2="hardAlpha" operator="out"/>
<feColorMatrix type="matrix" values="0 0 0 0 0 0 0 0 0 0 0 0 0 0 0 0 0 0 0.25 0"/>
<feBlend mode="normal" in2="BackgroundImageFix" result="effect1_dropShadow_10_352"/>
<feBlend mode="normal" in="SourceGraphic" in2="effect1_dropShadow_10_352" result="shape"/>
</filter>
<filter id="filter2_d_10_352" x="76.5752" y="24.9905" width="27.1467" height="33.2216" filterUnits="userSpaceOnUse" color-interpolation-filters="sRGB">
<feFlood flood-opacity="0" result="BackgroundImageFix"/>
<feColorMatrix in="SourceAlpha" type="matrix" values="0 0 0 0 0 0 0 0 0 0 0 0 0 0 0 0 0 0 127 0" result="hardAlpha"/>
<feOffset dy="1"/>
<feGaussianBlur stdDeviation="0.5"/>
<feComposite in2="hardAlpha" operator="out"/>
<feColorMatrix type="matrix" values="0 0 0 0 0 0 0 0 0 0 0 0 0 0 0 0 0 0 0.25 0"/>
<feBlend mode="normal" in2="BackgroundImageFix" result="effect1_dropShadow_10_352"/>
<feBlend mode="normal" in="SourceGraphic" in2="effect1_dropShadow_10_352" result="shape"/>
</filter>
</defs>
</svg>
